PathFileType	4	(X/Y/Z)	C:/Users/opensim2020/Desktop/walking_exp_matlab/subject02_walking09_straight_01.trc																																																																																																																												
DataRate	CameraRate	NumFrames	NumMarkers	Units	OrigDataRate	OrigDataStartFrame	OrigNumFrames																																																																																																																								
100	100	6	42	mm	100	709	293																																																																																																																								
Frame#	Time	LFHD			RFHD			LBHD			RBHD			C7			T10			CLAV			STRN			RBAK			LSHO			LUPA			LELB			LFRM			LWRA			LWRB			LFIN			RSHO			RUPA			RELB			RFRM			RWRA			RWRB			RFIN			LASI			RASI			LPSI			RPSI			LTHI			LKNE			LTIB			LANK			LHEE			LTOE			RTHI			RKNE			RTIB			RANK			RHEE			RTOE			*39			*40			*41		
		X1	Y1	Z1	X2	Y2	Z2	X3	Y3	Z3	X4	Y4	Z4	X5	Y5	Z5	X6	Y6	Z6	X7	Y7	Z7	X8	Y8	Z8	X9	Y9	Z9	X10	Y10	Z10	X11	Y11	Z11	X12	Y12	Z12	X13	Y13	Z13	X14	Y14	Z14	X15	Y15	Z15	X16	Y16	Z16	X17	Y17	Z17	X18	Y18	Z18	X19	Y19	Z19	X20	Y20	Z20	X21	Y21	Z21	X22	Y22	Z22	X23	Y23	Z23	X24	Y24	Z24	X25	Y25	Z25	X26	Y26	Z26	X27	Y27	Z27	X28	Y28	Z28	X29	Y29	Z29	X30	Y30	Z30	X31	Y31	Z31	X32	Y32	Z32	X33	Y33	Z33	X34	Y34	Z34	X35	Y35	Z35	X36	Y36	Z36	X37	Y37	Z37	X38	Y38	Z38	X39	Y39	Z39	X40	Y40	Z40	X41	Y41	Z41	X42	Y42	Z42
																																																																																																																															
184	1.83	185.26831	1754.75159	-1018.68591	171.76013	1733.02844	-876.03223	77.60582	1652.177	-1043.91626	53.03778	1626.18799	-904.50677	36.27725	1521.80188	-962.06085	-23.19197	1251.32642	-950.50171	176.87534	1454.72888	-981.95605	225.97672	1280.84033	-970.02875	-17.54223	1354.7074	-886.56812	91.9672	1492.82166	-1144.98743	33.92607	1302.91479	-1224.08337	1.40629	1168.14124	-1236.91675	-25.35577	1041.19897	-1262.60059	3.39684	902.70551	-1257.98401	-47.31523	920.05756	-1277.08362	-46.57342	852.31714	-1286.44019	132.00424	1496.15234	-783.78601	148.37674	1311.91064	-685.09698	202.02615	1173.64929	-661.4054	271.68231	1073.95752	-650.46747	356.23535	972.00177	-680.19104	320.33801	953.17889	-640.00714	378.09879	910.19855	-644.45105	205.34323	989.18262	-1090.78564	200.09544	972.24603	-833.45099	-4.8792	1028.54993	-1013.1795	-13.29634	1028.92078	-899.3454	193.24919	685.25629	-1168.24487	233.21158	488.30878	-1142.7323	246.5679	294.80719	-1147.23938	339.34924	86.39572	-1138.71973	326.79428	51.09151	-1082.47546	492.86649	95.80963	-1174.86401	89.91451	667.29657	-786.43542	57.0105	459.32687	-833.1438	-16.03754	284.65454	-833.75421	-63.16713	97.03071	-879.59259	-101.21249	45.20346	-938.0434	81.86272	36.93933	-854.46625	60.80905	1791.9845	-942.08453	2845.18042	1033.97864	-3360.2644	NaN	NaN	NaN
185	1.84	194.06703	1753.40515	-1020.04309	180.64284	1731.78088	-877.42548	86.44646	1650.88611	-1045.26135	61.82269	1625.0293	-905.96106	44.99432	1520.64941	-963.35425	-14.65539	1250.17285	-951.80377	185.53017	1453.39856	-983.11011	234.54372	1279.5498	-970.84357	-9.1436	1353.62317	-887.84149	100.78178	1491.5968	-1146.27698	41.76929	1301.7865	-1224.94409	8.23212	1167.30725	-1237.35852	-19.93972	1040.68323	-1262.76819	7.29816	902.08759	-1258.43323	-43.44875	919.7113	-1277.48291	-43.46521	852.01337	-1286.6748	140.88234	1494.7522	-784.99005	157.53575	1311.03296	-686.09351	212.00554	1172.96484	-662.30786	282.58276	1073.8562	-651.33716	367.98453	972.65271	-681.20154	332.26959	953.44775	-641.00696	390.93808	911.25507	-645.30579	214.53883	987.9585	-1090.64502	208.35622	971.04749	-833.29913	3.85006	1027.2771	-1014.37396	-4.90991	1027.68372	-900.63153	203.07175	684.05145	-1168.43469	243.77357	486.99957	-1142.28333	261.07706	294.23831	-1148.20288	358.43594	87.76727	-1140.04761	345.81836	51.75159	-1084.29175	512.53259	99.90124	-1173.51343	95.6186	666.73413	-786.84204	61.24163	458.89133	-833.27167	-13.9044	285.01538	-833.86353	-62.6031	97.89188	-879.53271	-100.93927	46.11198	-938.29187	81.88789	36.88359	-854.25116	69.87956	1790.93823	-943.48322	NaN	NaN	NaN	NaN	NaN	NaN
186	1.85	203.0076	1752.12927	-1021.62775	189.59326	1730.57935	-878.80273	95.2579	1649.65942	-1046.6875	70.55197	1623.89685	-907.26141	53.66036	1519.45862	-964.72363	-6.03505	1248.95471	-953.06653	194.25317	1452.11023	-984.36206	243.29643	1278.30908	-971.80194	-0.72848	1352.47595	-889.26111	109.57796	1490.11145	-1147.59314	49.84086	1300.73083	-1226.09021	15.23852	1166.28369	-1238.10522	-14.17538	1040.13745	-1263.26538	11.51272	901.02606	-1259.07092	-38.88457	919.50226	-1277.93542	-39.85553	851.63745	-1286.95569	149.39511	1493.5415	-786.03265	166.46585	1309.76782	-687.36841	221.75381	1172.06006	-663.31183	293.10599	1073.52039	-652.4679	379.40424	973.18103	-682.29175	343.7746	953.63818	-642.20972	402.32178	911.77026	-646.5661	223.84828	986.73242	-1090.72559	216.54305	969.7973	-833.3432	12.61619	1026.05579	-1015.67499	3.54847	1026.53931	-901.93091	213.42809	682.82971	-1168.56836	254.87843	486.23236	-1142.25879	274.9884	293.93774	-1149.07532	375.73694	88.93604	-1141.36243	362.86929	52.1074	-1086.06604	530.37292	103.39014	-1172.30273	101.53413	666.14941	-787.30884	65.55459	458.47516	-833.32294	-11.43108	285.41748	-834.06781	-62.02797	98.69294	-879.61304	-100.67593	47.11694	-938.41833	81.96767	36.81424	-854.10248	78.73909	1789.63074	-945.06488	NaN	NaN	NaN	NaN	NaN	NaN
187	1.86	211.96581	1750.76624	-1023.16687	198.5186	1729.36047	-880.39117	104.10578	1648.42932	-1048.19617	79.63823	1622.83301	-908.52625	62.40001	1518.24597	-966.14417	2.68054	1247.69226	-954.47437	203.01547	1450.83618	-985.7226	252.07001	1277.10522	-972.89691	7.78468	1351.3114	-890.77216	118.4482	1488.75098	-1148.9707	58.01027	1299.58557	-1227.27368	22.67362	1165.45239	-1238.85278	-8.03338	1039.5509	-1263.92664	16.26516	900.10333	-1259.646	-33.99371	919.05328	-1278.61792	-35.73218	851.2005	-1287.30261	158.05142	1492.42236	-787.43463	175.20053	1308.34949	-688.75403	231.12967	1171.13843	-664.50903	303.24841	1073.11292	-653.51324	390.49625	973.59656	-683.45526	354.922	953.60016	-643.46423	414.43427	912.61438	-647.52771	233.15895	985.47284	-1090.9718	224.93346	968.47375	-833.58905	21.44437	1024.84583	-1017.034	12.33363	1025.40674	-903.32385	224.321	681.74426	-1168.86157	266.52698	485.65564	-1142.45239	288.31595	293.40524	-1149.60706	391.10907	89.63529	-1142.23047	377.67938	52.4529	-1087.34302	546.0788	105.51439	-1171.1145	107.65498	665.59485	-787.80646	70.39503	458.07047	-833.71594	-8.91608	285.90701	-834.1496	-61.41897	99.67198	-879.63348	-100.08657	48.19001	-938.51654	82.02352	36.77473	-853.95184	87.73987	1788.42529	-946.62054	NaN	NaN	NaN	NaN	NaN	NaN
188	1.87	220.98264	1749.44922	-1024.80444	207.42191	1728.1394	-881.97705	112.90859	1647.05139	-1049.76746	88.21225	1621.86133	-910.28168	71.23378	1516.9696	-967.6618	11.4467	1246.48645	-955.79681	211.86661	1449.58179	-987.16315	260.91733	1275.91028	-974.09528	16.35633	1350.12537	-892.32715	127.40398	1487.53503	-1150.45984	66.37713	1298.32483	-1228.38916	30.16578	1164.37183	-1239.72009	-1.39592	1038.98743	-1265.21326	21.51182	899.20801	-1260.30005	-28.46989	918.70001	-1279.24768	-31.01904	850.68463	-1287.75085	166.44563	1491.15161	-788.78534	183.82954	1307.25916	-690.39252	240.31143	1170.16235	-665.75903	313.35181	1072.67261	-655.21631	401.22437	973.78137	-684.75201	365.75244	953.4765	-644.8833	425.13522	912.92859	-648.9942	242.54242	984.23993	-1091.47705	233.35732	967.20172	-834.07611	30.44639	1023.60803	-1018.44116	21.10602	1024.35229	-904.64038	235.83806	680.8457	-1169.26355	278.59418	485.24609	-1142.96289	301.1145	293.17825	-1150.68225	404.56699	89.72255	-1142.59363	390.85287	52.29982	-1088.10547	559.73322	106.06148	-1169.74841	113.89644	665.00067	-788.32336	74.98807	457.66321	-833.89069	-6.18902	286.52036	-834.32715	-60.80412	100.63859	-879.60352	-100.13898	49.61948	-938.56427	82.10963	36.73825	-853.75085	96.73687	1787.50024	-948.26654	NaN	NaN	NaN	NaN	NaN	NaN
189	1.88	229.96667	1748.17725	-1026.53003	216.40152	1726.92554	-883.76758	121.88638	1645.97021	-1051.35095	97.05228	1620.62256	-911.97998	80.06501	1515.75964	-969.32306	20.3081	1245.25964	-957.30231	220.70132	1448.31458	-988.67993	269.8403	1274.7063	-975.38977	25.06739	1348.86304	-894.03558	136.30663	1486.22522	-1152.07971	74.90893	1297.19946	-1229.85217	38.09721	1163.4425	-1240.67407	5.36811	1038.13928	-1265.53003	27.22096	898.38641	-1260.89246	-22.57595	918.14709	-1280.026	-25.83275	850.09302	-1288.27405	175.05153	1489.94727	-790.24725	192.32735	1305.8407	-692.04535	249.23717	1169.0553	-667.20428	322.63345	1071.83374	-656.3952	411.56387	973.94556	-686.05646	376.08502	953.20642	-646.45831	435.93307	913.16028	-650.3432	252.11288	983.05334	-1092.24585	241.99268	965.9729	-834.76129	39.5928	1022.33575	-1019.93799	30.15763	1023.20148	-906.08899	247.76237	680.20074	-1169.70654	290.81784	484.91089	-1143.79016	313.31699	292.83545	-1151.70715	416.08041	89.24901	-1142.54565	402.28143	51.4256	-1087.89758	571.46344	105.2569	-1168.36487	120.29169	664.51489	-788.86359	79.84886	457.55005	-833.83112	-3.56622	287.20847	-834.47443	-60.1926	101.85593	-879.50629	-99.84801	51.19956	-938.68494	82.21333	36.69513	-853.55377	105.94048	1786.36987	-949.9801	NaN	NaN	NaN	NaN	NaN	NaN
